<svg width="510" height="455" viewBox="0 0 510 455" fill="none" xmlns="http://www.w3.org/2000/svg">
<path d="M263.459 0L481.271 271.107C534.38 341.607 504.778 420.977 465.485 454.913C379.587 344.055 314.289 265.779 238.549 171.285C212.84 130.435 203.841 55.9758 263.459 0Z" fill="url(#paint0_linear_38_1034)"/>
<path d="M163.409 64.5625L437.84 272.837C505.778 327.886 495.666 412.033 465.438 454.843L179.099 237.025C144.647 203.854 118.588 133.869 163.409 64.5625Z" fill="url(#paint1_linear_38_1034)"/>
<path d="M61.7989 180.63L384.708 290.549C465.684 321.08 481.205 404.414 465.182 454.84L127.985 339.611C85.3599 319.131 39.7734 260.943 61.7989 180.63Z" fill="url(#paint2_linear_38_1034)"/>
<path d="M0 323.797L339.778 324.603C425.866 327.625 465.399 401.895 465.149 455L110.204 453.735C63.5773 447.951 2.92561 407.256 0 323.797Z" fill="url(#paint3_linear_38_1034)"/>
<defs>
<linearGradient id="paint0_linear_38_1034" x1="261.262" y1="4.5117" x2="482.873" y2="453.013" gradientUnits="userSpaceOnUse">
<stop stop-color="#2D9CDC"/>
<stop offset="1" stop-color="#207F99"/>
</linearGradient>
<linearGradient id="paint1_linear_38_1034" x1="163.922" y1="64.6071" x2="479.224" y2="442.693" gradientUnits="userSpaceOnUse">
<stop stop-color="#4AACE3"/>
<stop offset="1" stop-color="#4093AA"/>
</linearGradient>
<linearGradient id="paint2_linear_38_1034" x1="55.7679" y1="180.921" x2="483.176" y2="514.781" gradientUnits="userSpaceOnUse">
<stop stop-color="#68BBEA"/>
<stop offset="1" stop-color="#60A7BA"/>
</linearGradient>
<linearGradient id="paint3_linear_38_1034" x1="-0.174659" y1="323.599" x2="467.654" y2="445.478" gradientUnits="userSpaceOnUse">
<stop stop-color="#87CAF0"/>
<stop offset="1" stop-color="#81BBCA"/>
</linearGradient>
</defs>
</svg>
